<svg xmlns="http://www.w3.org/2000/svg" width="24" height="24" viewBox="0 0 24 24"><path fill="currentColor" d="M5.5002,6.2482 L5.5002,14.3602 C5.5002,14.7732 5.8362,15.1082 6.2512,15.1082 C6.6662,15.1082 7.0022,14.7732 7.0022,14.3602 L7.0022,8.1172 L17.2172,18.2812 C17.5112,18.5732 17.9862,18.5732 18.2792,18.2812 C18.4272,18.1352 18.5002,17.9442 18.5002,17.7522 C18.5002,17.5612 18.4272,17.3702 18.2792,17.2242 L8.0012,6.9962 L14.2742,6.9962 C14.6892,6.9962 15.0262,6.6612 15.0262,6.2482 C15.0262,5.8352 14.6892,5.5002 14.2742,5.5002 L6.2512,5.5002 C5.8362,5.5002 5.5002,5.8352 5.5002,6.2482"/></svg>