<svg xmlns="http://www.w3.org/2000/svg" width="24" height="24" viewBox="0 0 24 24"><path fill="currentColor" d="M18.5002,17.7522 L18.5002,9.6402 C18.5002,9.2272 18.1642,8.8922 17.7492,8.8922 C17.3342,8.8922 16.9982,9.2272 16.9982,9.6402 L16.9982,15.8832 L6.7832,5.7192 C6.4892,5.4272 6.0142,5.4272 5.7212,5.7192 C5.5732,5.8652 5.5002,6.0562 5.5002,6.2482 C5.5002,6.4392 5.5732,6.6302 5.7212,6.7762 L15.9992,17.0042 L9.7262,17.0042 C9.3112,17.0042 8.9742,17.3392 8.9742,17.7522 C8.9742,18.1652 9.3112,18.5002 9.7262,18.5002 L17.7492,18.5002 C18.1642,18.5002 18.5002,18.1652 18.5002,17.7522"/></svg>