<svg xmlns="http://www.w3.org/2000/svg" width="24" height="24" viewBox="0 0 24 24"><path fill="currentColor" d="M20.415,7.8378 C20.324,7.9608 20.188,8.0408 20.035,8.0648 C19.884,8.0888 19.728,8.0538 19.602,7.9648 C19.476,7.8758 19.392,7.7448 19.368,7.5948 C19.343,7.4448 19.38,7.2958 19.471,7.1718 C19.561,7.0488 19.697,6.9678 19.851,6.9438 C19.882,6.9398 19.913,6.9368 19.944,6.9368 C20.065,6.9368 20.184,6.9748 20.284,7.0448 C20.41,7.1338 20.494,7.2648 20.518,7.4148 C20.543,7.5648 20.507,7.7148 20.415,7.8378 M15.911,13.6938 C15.819,13.8168 15.685,13.8978 15.531,13.9208 C15.379,13.9458 15.225,13.9108 15.097,13.8218 C14.972,13.7328 14.888,13.6008 14.864,13.4518 C14.839,13.3008 14.875,13.1508 14.967,13.0288 C15.058,12.9058 15.193,12.8248 15.347,12.8008 C15.378,12.7958 15.409,12.7938 15.44,12.7938 C15.561,12.7938 15.68,12.8308 15.78,12.9008 C16.041,13.0848 16.099,13.4408 15.911,13.6938 M9.19,11.7278 C9.002,11.9808 8.636,12.0378 8.376,11.8548 C8.116,11.6708 8.058,11.3158 8.246,11.0618 C8.359,10.9088 8.538,10.8278 8.719,10.8278 C8.837,10.8278 8.957,10.8618 9.06,10.9348 C9.32,11.1188 9.378,11.4738 9.19,11.7278 M4.486,16.8788 C4.382,16.9908 4.238,17.0558 4.083,17.0628 C3.933,17.0638 3.779,17.0178 3.664,16.9158 C3.427,16.7048 3.41,16.3438 3.626,16.1128 C3.741,15.9908 3.899,15.9288 4.057,15.9288 C4.198,15.9288 4.338,15.9768 4.45,16.0768 C4.564,16.1778 4.631,16.3188 4.639,16.4698 C4.646,16.6218 4.592,16.7658 4.486,16.8788 M21.974,7.1878 C21.887,6.6588 21.594,6.1948 21.149,5.8808 C20.703,5.5668 20.15,5.4408 19.617,5.5258 C19.074,5.6108 18.599,5.8968 18.276,6.3308 C17.746,7.0448 17.779,7.9838 18.278,8.6658 L16.113,11.4778 C15.276,11.1928 14.315,11.4528 13.772,12.1868 C13.762,12.2018 13.755,12.2188 13.744,12.2338 L10.752,11.1408 C10.682,10.6108 10.402,10.1078 9.924,9.7708 L9.924,9.7708 C9.003,9.1228 7.715,9.3248 7.052,10.2198 C6.596,10.8348 6.559,11.6148 6.872,12.2558 L4.787,14.6268 C4.021,14.3438 3.123,14.5208 2.538,15.1438 C2.168,15.5398 1.977,16.0518 2.002,16.5878 C2.027,17.1228 2.265,17.6158 2.67,17.9758 C3.052,18.3158 3.54,18.5008 4.054,18.5008 C4.086,18.5008 4.119,18.5008 4.15,18.4988 C4.699,18.4738 5.206,18.2428 5.575,17.8468 C5.946,17.4528 6.136,16.9398 6.111,16.4048 C6.098,16.1138 6.017,15.8378 5.885,15.5868 L7.952,13.2348 C8.2,13.3328 8.455,13.3978 8.715,13.3978 C9.353,13.3978 9.982,13.1108 10.385,12.5698 C10.39,12.5618 10.393,12.5528 10.399,12.5458 L13.406,13.6448 C13.483,14.1648 13.764,14.6538 14.233,14.9848 C14.597,15.2418 15.019,15.3648 15.436,15.3648 C16.074,15.3648 16.704,15.0768 17.105,14.5358 C17.587,13.8858 17.604,13.0508 17.231,12.3918 C17.248,12.3748 17.27,12.3678 17.285,12.3488 L19.52,9.4448 C19.659,9.4738 19.799,9.5078 19.94,9.5078 C20.578,9.5078 21.208,9.2208 21.609,8.6798 C21.932,8.2458 22.061,7.7158 21.974,7.1878"/></svg>