<svg xmlns="http://www.w3.org/2000/svg" width="24" height="24" viewBox="0 0 24 24"><path fill="currentColor" d="M11.5317296,22 C9.93026323,22 8.54861046,21.058866 7.90967652,19.6995033 L15.1537827,19.6995033 C14.5148488,21.058866 13.133196,22 11.5317296,22 Z M11.5317296,3 C13.0750257,3 14.3461418,4.16534108 14.5131327,5.66407798 C16.887757,6.78396545 18.5317296,9.19999754 18.5317296,12 L18.5317296,14.2058384 C18.5317296,15.2144846 18.6924304,16.2150411 19.013832,17.2075079 C19.1846179,17.7327251 18.8956803,18.2961192 18.369978,18.4653988 C18.2720253,18.4969403 18.169791,18.5131734 18.0668859,18.5135307 L4.99657336,18.5135307 C4.44429189,18.511629 3.99811616,18.0623795 3.99990381,17.510098 C4.00036618,17.4069206 4.01668612,17.3044195 4.04962722,17.2066327 C4.37102882,16.2137949 4.53172961,15.2135302 4.53172961,14.2058384 L4.53172961,12 C4.53172961,9.19999754 6.1757022,6.78396545 8.55107225,5.66447886 C8.71731738,4.16534108 9.9884335,3 11.5317296,3 Z"/></svg>