<svg xmlns="http://www.w3.org/2000/svg" width="24" height="24" viewBox="0 0 24 24"><path fill="currentColor" d="M16.5,2 C18.1568542,2 19.5,3.34314575 19.5,5 L19.5010249,12.0066292 C21.0102129,13.0429849 22,14.7809038 22,16.75 C22,19.9256373 19.4256373,22.5 16.25,22.5 C15.0482658,22.5 13.9326365,22.131341 13.010037,21.5009481 L7.5,21.5 C5.84314575,21.5 4.5,20.1568542 4.5,18.5 L4.5,5 C4.5,3.34314575 5.84314575,2 7.5,2 L16.5,2 Z M16.25,12.5 C13.9027898,12.5 12,14.4027898 12,16.75 C12,18.2359912 12.7626395,19.5438583 13.9178687,20.3035516 C13.9547816,20.3278297 13.9923495,20.3517041 14.0303115,20.3749989 L13.9178687,20.3035516 C13.9821585,20.3458294 14.0476642,20.3864095 14.1143221,20.4252281 L14.0303115,20.3749989 C14.085615,20.4089352 14.1417548,20.4416413 14.1986926,20.4730793 L14.1143221,20.4252281 C14.1717206,20.4586544 14.2299733,20.4907747 14.2890396,20.5215481 L14.1986926,20.4730793 C14.3296642,20.5453948 14.4648588,20.6110002 14.6038125,20.6694318 L14.4630671,20.6072067 C14.6104092,20.6755811 14.7623264,20.7357615 14.9182336,20.7871627 C14.972658,20.80511 15.0278417,20.8220653 15.0834911,20.837915 L14.9182336,20.7871627 C14.9836432,20.8087277 15.049755,20.8287473 15.116526,20.8471786 L15.0834911,20.837915 C15.1567542,20.8587812 15.2308247,20.8777311 15.3056449,20.894707 L15.5049568,20.9349129 C15.5311711,20.9395483 15.5574684,20.9439433 15.5838462,20.9480957 L15.5051723,20.934951 C15.5794561,20.9480823 15.654406,20.959284 15.7299683,20.9685027 L15.5838462,20.9480957 C15.6547726,20.9592609 15.7262816,20.9686718 15.7983275,20.9762826 L15.7299683,20.9685027 C15.8085046,20.9780842 15.8877025,20.9855235 15.9675018,20.9907603 L15.7983275,20.9762826 C15.8720138,20.9840667 15.9462617,20.9899678 16.0210221,20.9939368 L16.25,21 L16.4759717,20.9940954 C16.5030299,20.9926779 16.530021,20.9910073 16.5569429,20.9890859 C16.6058054,20.9856035 16.6548505,20.9812514 16.7036491,20.9760734 L16.5569429,20.9890859 C16.6335537,20.9836184 16.7096029,20.9761202 16.7850369,20.966645 L16.7036491,20.9760734 C16.7747061,20.9685335 16.8452403,20.9592426 16.9152077,20.9482445 L16.7850369,20.966645 C16.8619982,20.9569779 16.9383191,20.9452529 17.0139429,20.9315268 L16.9152077,20.9482445 C17.0011615,20.9347336 17.08626,20.9186463 17.1704216,20.9000642 L17.0139429,20.9315268 C17.081002,20.9193552 17.147513,20.9056101 17.2134361,20.8903312 L17.1704216,20.9000642 C17.3276622,20.8653469 17.4816327,20.8219211 17.6318014,20.7703186 C17.6678054,20.7579494 17.7038739,20.7450043 17.7397128,20.7315891 L17.6318014,20.7703186 C17.7022961,20.7460945 17.7719529,20.7200684 17.840717,20.6922954 L17.7397128,20.7315891 C17.7966655,20.7102708 17.8530386,20.6877654 17.908802,20.6641032 L17.840717,20.6922954 C17.9143771,20.662545 17.9870127,20.63079 18.0585563,20.5970981 L17.908802,20.6641032 C17.9757944,20.6356762 18.0419068,20.6055795 18.1070871,20.5738653 L18.0585563,20.5970981 C18.11827,20.5689771 18.177223,20.5395068 18.2353759,20.5087265 L18.1070871,20.5738653 C18.1776978,20.5395089 18.2472146,20.5032543 18.3155711,20.4651679 L18.2353759,20.5087265 C18.3678452,20.4386105 18.4961627,20.3616966 18.6198638,20.2784495 C18.6775374,20.2396283 18.7338569,20.1996919 18.7891391,20.1584422 C18.8031961,20.1479508 18.81679,20.1376776 18.8303199,20.1273249 L18.7891391,20.1584422 C18.8328905,20.1257964 18.8759922,20.0923279 18.9184213,20.0580598 L18.8303199,20.1273249 C18.8869843,20.083967 18.9425256,20.0392152 18.9968927,19.9931208 L18.9184213,20.0580598 C18.9762198,20.0113785 19.0327701,19.9632132 19.0880142,19.9136219 L18.9968927,19.9931208 C19.0555469,19.9433917 19.1128344,19.8920998 19.1686909,19.8393097 L19.0880142,19.9136219 C19.954775,19.1355515 20.5,18.0064478 20.5,16.75 C20.5,15.5992412 20.0426429,14.5553039 19.2997845,13.790044 C19.258012,13.7469921 19.2146311,13.7041543 19.1703494,13.6622587 L19.2997845,13.790044 C19.2324803,13.7207102 19.1628325,13.6536639 19.0909689,13.589033 C19.0417687,13.5447813 18.9914085,13.5015624 18.940046,13.4595224 L19.0909689,13.589033 C19.0246357,13.5293758 18.9564146,13.4717766 18.8864061,13.4163359 L18.940046,13.4595224 C18.8849657,13.4144394 18.8287326,13.370712 18.7713979,13.3283913 L18.8864061,13.4163359 C18.8147583,13.3595968 18.7412384,13.3051185 18.6659543,13.2530087 L18.481205,13.1320933 C18.4162957,13.0919778 18.3502261,13.0535602 18.283058,13.0169027 C18.2607015,13.0047028 18.2384003,12.9927904 18.2159815,12.9810721 L18.283058,13.0169027 C18.1909128,12.9666137 18.0967004,12.919637 18.0005808,12.8761325 C17.4667459,12.6345147 16.8740818,12.5 16.25,12.5 Z M16.5,3.5 L7.5,3.5 C6.67157288,3.5 6,4.17157288 6,5 L6,18.5 C6,19.3284271 6.67157288,20 7.5,20 L11.5066292,20.0010249 C10.8716141,19.0762872 10.5,17.9565412 10.5,16.75 C10.5,13.5743627 13.0743627,11 16.25,11 C16.8604854,11 17.4487499,11.095139 18.0007756,11.2713991 L18,5 C18,4.17157288 17.3284271,3.5 16.5,3.5 Z M18.6804887,14.7187856 C19.0014846,14.9805767 19.0494795,15.4530188 18.7876885,15.7740146 L16.2141878,18.9295196 C15.9486278,19.2551368 15.4674035,19.2990897 15.1472486,19.0269692 L13.5142752,17.6389982 C13.1986642,17.3707398 13.1602773,16.8974201 13.4285358,16.5818091 C13.6967942,16.2661981 14.1701139,16.2278113 14.4857248,16.4960697 L15.535,17.388 L17.6252598,14.8259854 C17.8870508,14.5049895 18.3594929,14.4569946 18.6804887,14.7187856 Z M9,11.5 C9.41421356,11.5 9.75,11.8357864 9.75,12.25 C9.75,12.6642136 9.41421356,13 9,13 L8,13 C7.58578644,13 7.25,12.6642136 7.25,12.25 C7.25,11.8357864 7.58578644,11.5 8,11.5 L9,11.5 Z M12.5,8.5 C12.9142136,8.5 13.25,8.83578644 13.25,9.25 C13.25,9.66421356 12.9142136,10 12.5,10 L8,10 C7.58578644,10 7.25,9.66421356 7.25,9.25 C7.25,8.83578644 7.58578644,8.5 8,8.5 L12.5,8.5 Z M16,5.5 C16.4142136,5.5 16.75,5.83578644 16.75,6.25 C16.75,6.66421356 16.4142136,7 16,7 L8,7 C7.58578644,7 7.25,6.66421356 7.25,6.25 C7.25,5.83578644 7.58578644,5.5 8,5.5 L16,5.5 Z"/></svg>