<svg xmlns="http://www.w3.org/2000/svg" width="24" height="24" viewBox="0 0 24 24"><path fill="currentColor" d="M12.9612951,3.24794022 C13.2936145,3.43071591 13.5671137,3.70421511 13.7498894,4.03653454 L21.3673469,17.8864574 C21.8996597,18.8542987 21.546594,20.0704139 20.5787526,20.6027267 C20.2834627,20.7651362 19.9519211,20.8502949 19.6149151,20.8502949 L4.38,20.8502949 C3.2754305,20.8502949 2.38,19.9548644 2.38,18.8502949 C2.38,18.5132889 2.4651587,18.1817473 2.62756818,17.8864574 L10.2450257,4.03653454 C10.7773385,3.06869317 11.9934537,2.71562747 12.9612951,3.24794022 Z M11.5593496,4.75941266 L3.94189205,18.6093355 C3.90128968,18.683158 3.88,18.7660434 3.88,18.8502949 C3.88,19.1264372 4.10385763,19.3502949 4.38,19.3502949 L19.6149151,19.3502949 C19.6991666,19.3502949 19.782052,19.3290052 19.8558745,19.2884028 C20.0978348,19.1553246 20.1861013,18.8512958 20.0530231,18.6093355 L12.4355655,4.75941266 C12.3898716,4.6763328 12.3214968,4.607958 12.2384169,4.56226408 C11.9964566,4.42918589 11.6924278,4.51745232 11.5593496,4.75941266 Z M11.9974576,16.2179453 C12.4116711,16.2179453 12.7474576,16.5537318 12.7474576,16.9679453 C12.7474576,17.3821589 12.4116711,17.7179453 11.9974576,17.7179453 C11.583244,17.7179453 11.2474576,17.3821589 11.2474576,16.9679453 C11.2474576,16.5537318 11.583244,16.2179453 11.9974576,16.2179453 Z M11.9958247,7.72554988 C12.4100383,7.72554988 12.7458247,8.06133632 12.7458247,8.47554988 L12.7458247,14.4755499 C12.7458247,14.8897634 12.4100383,15.2255499 11.9958247,15.2255499 C11.5816111,15.2255499 11.2458247,14.8897634 11.2458247,14.4755499 L11.2458247,8.47554988 C11.2458247,8.06133632 11.5816111,7.72554988 11.9958247,7.72554988 Z"/></svg>